# xmcd CD database file
#
# Track frame offsets:
#	150
#	8004
#	54264
#	98296
#	122703
#	162063
#	216296
#
# Disc length: 3211 seconds
#
# Revision: 0
# Processed by: cddbd v1.5.1PL0 Copyright (c) Steve Scherf et al.
# Submitted via: CDex 1.51
#
DISCID=480c8907
DTITLE=Doug Carn - spirit of the new land
DYEAR=1900
DGENRE=Jazz
TTITLE0=DWELL LIKE A GHOST
TTITLE1=MY SPIRIT
TTITLE2=ARISE ANE SHINE
TTITLE3=BLUE IN GREEN
TTITLE4=TRANCE DANCE
TTITLE5=SEARCH FOR THE NEW LAND
TTITLE6=NEW MOON
EXTD=
EXTT0=
EXTT1=
EXTT2=
EXTT3=
EXTT4=
EXTT5=
EXTT6=
PLAYORDER=
